<svg xmlns="http://www.w3.org/2000/svg" fill="currentColor" viewBox="0 0 24 24" fill="currentColor">
    <title>
        Exclamation point in a circle
    </title>
    <path d="M12 0C9.813 0 7.8.533 5.96 1.6A11.793 11.793 0 001.6 5.96C.533 7.8 0 9.813 0 12s.533 4.2 1.6 6.04a11.793 11.793 0 004.36 4.36C7.8 23.467 9.813 24 12 24s4.2-.533 6.04-1.6a11.793 11.793 0 004.36-4.36C23.467 16.2 24 14.187 24 12s-.533-4.2-1.6-6.04a11.793 11.793 0 00-4.36-4.36C16.2.533 14.187 0 12 0zm0 17.36a1.31 1.31 0 01-.96-.4c-.267-.267-.4-.6-.4-1s.133-.733.4-1 .587-.4.96-.4.693.133.96.4.4.6.4 1-.133.733-.4 1a1.31 1.31 0 01-.96.4zm1.44-4.72h-2.8V6h2.8v6.64z"/>
</svg>
